Video
ID : 0
Format : MPEG-4 Visual
Format profile : Advanced Simple@L5
Format settings, BVOP : 1
Format settings, QPel : No
Format settings, GMC : No warppoints
Format settings, Matrix : Default (H.263)
Muxing mode : Packed bitstream
Codec ID : XVID
Codec ID/Hint : XviD
Duration : 2h 41mn
Bit rate : 526 Kbps
Width : 608 pixels
Height : 256 pixels
Display aspect ratio : 2.40:1
Frame rate : 29.970 fps
Color space : YUV
Chroma subsampling : 4:2:0
Bit depth : 8 bits
Scan type : Progressive
Compression mode : Lossy
Bits/(Pixel*Frame) : 0.113
Stream size : 607 MiB (89%)
Writing library : XviD 1.2.1 (UTC 2008-12-04)

Audio
ID : 1
Format : MPEG Audio
Format version : Version 2
Format profile : Layer 3
Mode : Joint stereo
Mode extension : MS Stereo
Codec ID : 55
Codec ID/Hint : MP3
Duration : 2h 41mn
Bit rate mode : Constant
Bit rate : 64.0 Kbps
Channel(s) : 2 channels
Sampling rate : 24.0 KHz
Compression mode : Lossy
Stream size : 73.9 MiB (11%)
Alignment : Aligned on interleaves
Interleave, duration : 968 ms (29.02 video frames)




 
http://desisnap.com/share.php?id=41F6_4FDC91EB
 
http://desisnap.com/image.php?id=CE8C_4FDC91EB&jpg 
http://desisnap.com/image.php?id=C633_4FDC91EB&jpg 
http://desisnap.com/image.php?id=4A91_4FDC91EB&jpg
